<svg xmlns="http://www.w3.org/2000/svg" id="Capa_1" viewBox="0 0 512 512"><defs><style>      .st0 {        fill: #00f900;      }    </style></defs><path class="st0" d="M256,435.2C112.5,435.2,0,379,0,307.2c.5-20.2,8.6-39.6,22.7-54.1,6.3-7,17.1-7.6,24.1-1.3,7,6.3,7.6,17.1,1.3,24.1-8.4,8.3-13.4,19.4-13.9,31.2,0,44.4,91.1,93.9,221.9,93.9s221.9-49.5,221.9-93.9c-.6-11.8-5.6-22.9-13.9-31.2-6.3-7-5.7-17.8,1.3-24.1s17.8-5.7,24.1,1.3c14.1,14.5,22.2,33.8,22.7,54.1,0,71.8-112.5,128-256,128h0Z"></path><path class="st0" d="M341.3,375.5c-9.4,0-17.1-7.6-17.1-17.1,0-32.2-20.2-61-50.4-72.1-8.9-3.2-13.4-13-10.2-21.9,1.1-2.9,2.9-5.5,5.3-7.5,14.7-11.8,17-33.3,5.1-48-11.8-14.7-33.3-17-48-5.1s-17,33.3-5.1,48c1.5,1.9,3.2,3.6,5.1,5.1,7.3,5.9,8.5,16.7,2.6,24-2,2.4-4.5,4.3-7.5,5.3-30.3,11.1-50.4,39.9-50.4,72.1,0,9.4-7.6,17.1-17.1,17.1s-17.1-7.6-17.1-17.1c0-38.1,19.6-73.5,51.8-93.9-18.8-32.7-7.6-74.4,25.1-93.2s74.4-7.6,93.2,25.1c12.2,21.1,12.2,47.1,0,68.2,32.2,20.4,51.7,55.8,51.8,93.9,0,9.4-7.6,17.1-17.1,17.1Z"></path><path class="st0" d="M426.7,290.1c-9.4,0-17.1-7.6-17.1-17.1,0-32.2-20.2-61-50.4-72.1-8.9-3.2-13.4-13-10.2-21.9,1.1-2.9,2.9-5.5,5.3-7.5,14.7-11.8,17-33.3,5.1-48s-33.3-17-48-5.1c-8,6.5-12.7,16.2-12.7,26.5,0,9.4-7.6,17.1-17.1,17.1s-17.1-7.6-17.1-17.1c0-37.7,30.6-68.2,68.3-68.2,37.7,0,68.2,30.6,68.2,68.3,0,12-3.2,23.7-9.1,34.1,32.2,20.4,51.7,55.8,51.8,93.9,0,9.4-7.6,17.1-17.1,17.1Z"></path><path class="st0" d="M85.3,290.1c-9.4,0-17.1-7.6-17.1-17.1,0-38.1,19.6-73.5,51.8-93.9-18.8-32.7-7.6-74.4,25.1-93.2s74.4-7.6,93.2,25.1c6,10.4,9.1,22.1,9.1,34.1,0,9.4-7.6,17.1-17.1,17.1s-17.1-7.6-17.1-17.1c0-18.9-15.3-34.1-34.2-34.1-18.9,0-34.1,15.3-34.1,34.2,0,10.3,4.7,20.1,12.7,26.5,7.3,5.9,8.5,16.7,2.6,24-2,2.4-4.5,4.3-7.5,5.3-30.3,11.1-50.4,39.9-50.4,72.1,0,9.4-7.6,17.1-17.1,17.1Z"></path></svg>